<mxfile host="Electron" agent="Mozilla/5.0 (Windows NT 10.0; Win64; x64) AppleWebKit/537.36 (KHTML, like Gecko) draw.io/26.0.7 Chrome/128.0.6613.186 Electron/32.2.5 Safari/537.36" version="26.0.7">
  <diagram name="Page-1" id="myqILL3eeMkwEd0w7rBm">
    <mxGraphModel dx="2045" dy="1837" grid="1" gridSize="10" guides="1" tooltips="1" connect="1" arrows="1" fold="1" page="1" pageScale="1" pageWidth="850" pageHeight="1100" background="none" math="0" shadow="0">
      <root>
        <mxCell id="0" />
        <mxCell id="1" parent="0" />
        <mxCell id="EI8C_f2i3DZrhKItlqoA-1" value="When play button is pressed" style="rounded=1;whiteSpace=wrap;html=1;" parent="1" vertex="1">
          <mxGeometry x="360" y="270" width="120" height="60" as="geometry" />
        </mxCell>
        <mxCell id="EI8C_f2i3DZrhKItlqoA-2" value="nocturnal-skirmish.php" style="text;html=1;align=center;verticalAlign=middle;whiteSpace=wrap;rounded=0;" parent="1" vertex="1">
          <mxGeometry x="345" y="240" width="150" height="30" as="geometry" />
        </mxCell>
        <mxCell id="EI8C_f2i3DZrhKItlqoA-3" value="" style="endArrow=classic;html=1;rounded=0;exitX=0.5;exitY=1;exitDx=0;exitDy=0;entryX=0.5;entryY=0;entryDx=0;entryDy=0;" parent="1" source="EI8C_f2i3DZrhKItlqoA-1" target="EI8C_f2i3DZrhKItlqoA-4" edge="1">
          <mxGeometry width="50" height="50" relative="1" as="geometry">
            <mxPoint x="420" y="350" as="sourcePoint" />
            <mxPoint x="420" y="410" as="targetPoint" />
          </mxGeometry>
        </mxCell>
        <mxCell id="EI8C_f2i3DZrhKItlqoA-4" value="Select gamemode" style="rounded=1;whiteSpace=wrap;html=1;" parent="1" vertex="1">
          <mxGeometry x="360" y="430" width="120" height="60" as="geometry" />
        </mxCell>
        <mxCell id="EI8C_f2i3DZrhKItlqoA-5" value="" style="endArrow=classic;html=1;rounded=0;exitX=0.5;exitY=1;exitDx=0;exitDy=0;entryX=0.5;entryY=0;entryDx=0;entryDy=0;" parent="1" source="EI8C_f2i3DZrhKItlqoA-4" target="EI8C_f2i3DZrhKItlqoA-8" edge="1">
          <mxGeometry width="50" height="50" relative="1" as="geometry">
            <mxPoint x="420" y="500" as="sourcePoint" />
            <mxPoint x="500" y="580" as="targetPoint" />
          </mxGeometry>
        </mxCell>
        <mxCell id="EI8C_f2i3DZrhKItlqoA-6" value="" style="endArrow=classic;html=1;rounded=0;exitX=0.5;exitY=1;exitDx=0;exitDy=0;entryX=0.5;entryY=0;entryDx=0;entryDy=0;" parent="1" source="EI8C_f2i3DZrhKItlqoA-4" target="EI8C_f2i3DZrhKItlqoA-7" edge="1">
          <mxGeometry width="50" height="50" relative="1" as="geometry">
            <mxPoint x="420" y="500" as="sourcePoint" />
            <mxPoint x="340" y="580" as="targetPoint" />
          </mxGeometry>
        </mxCell>
        <mxCell id="EI8C_f2i3DZrhKItlqoA-7" value="Duel (invite)" style="rounded=1;whiteSpace=wrap;html=1;" parent="1" vertex="1">
          <mxGeometry x="270" y="590" width="120" height="60" as="geometry" />
        </mxCell>
        <mxCell id="EI8C_f2i3DZrhKItlqoA-8" value="Algorithm based matchmaking" style="rounded=1;whiteSpace=wrap;html=1;" parent="1" vertex="1">
          <mxGeometry x="450" y="590" width="120" height="60" as="geometry" />
        </mxCell>
        <mxCell id="EI8C_f2i3DZrhKItlqoA-18" value="Matchmaking table" style="swimlane;fontStyle=0;childLayout=stackLayout;horizontal=1;startSize=30;horizontalStack=0;resizeParent=1;resizeParentMax=0;resizeLast=0;collapsible=1;marginBottom=0;whiteSpace=wrap;html=1;" parent="1" vertex="1">
          <mxGeometry x="690" y="600" width="140" height="210" as="geometry">
            <mxRectangle x="690" y="600" width="140" height="30" as="alternateBounds" />
          </mxGeometry>
        </mxCell>
        <mxCell id="EI8C_f2i3DZrhKItlqoA-19" value="id" style="text;strokeColor=none;fillColor=none;align=left;verticalAlign=middle;spacingLeft=4;spacingRight=4;overflow=hidden;points=[[0,0.5],[1,0.5]];portConstraint=eastwest;rotatable=0;whiteSpace=wrap;html=1;" parent="EI8C_f2i3DZrhKItlqoA-18" vertex="1">
          <mxGeometry y="30" width="140" height="30" as="geometry" />
        </mxCell>
        <mxCell id="EI8C_f2i3DZrhKItlqoA-20" value="user_id_1" style="text;strokeColor=none;fillColor=none;align=left;verticalAlign=middle;spacingLeft=4;spacingRight=4;overflow=hidden;points=[[0,0.5],[1,0.5]];portConstraint=eastwest;rotatable=0;whiteSpace=wrap;html=1;" parent="EI8C_f2i3DZrhKItlqoA-18" vertex="1">
          <mxGeometry y="60" width="140" height="30" as="geometry" />
        </mxCell>
        <mxCell id="EI8C_f2i3DZrhKItlqoA-21" value="user_id_2" style="text;strokeColor=none;fillColor=none;align=left;verticalAlign=middle;spacingLeft=4;spacingRight=4;overflow=hidden;points=[[0,0.5],[1,0.5]];portConstraint=eastwest;rotatable=0;whiteSpace=wrap;html=1;" parent="EI8C_f2i3DZrhKItlqoA-18" vertex="1">
          <mxGeometry y="90" width="140" height="30" as="geometry" />
        </mxCell>
        <mxCell id="EI8C_f2i3DZrhKItlqoA-23" value="gamemode" style="text;strokeColor=none;fillColor=none;align=left;verticalAlign=middle;spacingLeft=4;spacingRight=4;overflow=hidden;points=[[0,0.5],[1,0.5]];portConstraint=eastwest;rotatable=0;whiteSpace=wrap;html=1;" parent="EI8C_f2i3DZrhKItlqoA-18" vertex="1">
          <mxGeometry y="120" width="140" height="30" as="geometry" />
        </mxCell>
        <mxCell id="EI8C_f2i3DZrhKItlqoA-22" value="user_rank" style="text;strokeColor=none;fillColor=none;align=left;verticalAlign=middle;spacingLeft=4;spacingRight=4;overflow=hidden;points=[[0,0.5],[1,0.5]];portConstraint=eastwest;rotatable=0;whiteSpace=wrap;html=1;" parent="EI8C_f2i3DZrhKItlqoA-18" vertex="1">
          <mxGeometry y="150" width="140" height="30" as="geometry" />
        </mxCell>
        <mxCell id="EI8C_f2i3DZrhKItlqoA-101" value="match_name" style="text;strokeColor=none;fillColor=none;align=left;verticalAlign=middle;spacingLeft=4;spacingRight=4;overflow=hidden;points=[[0,0.5],[1,0.5]];portConstraint=eastwest;rotatable=0;whiteSpace=wrap;html=1;" parent="EI8C_f2i3DZrhKItlqoA-18" vertex="1">
          <mxGeometry y="180" width="140" height="30" as="geometry" />
        </mxCell>
        <mxCell id="EI8C_f2i3DZrhKItlqoA-24" value="" style="endArrow=classic;startArrow=classic;html=1;rounded=0;" parent="1" edge="1">
          <mxGeometry width="50" height="50" relative="1" as="geometry">
            <mxPoint x="580" y="610" as="sourcePoint" />
            <mxPoint x="670" y="610" as="targetPoint" />
          </mxGeometry>
        </mxCell>
        <mxCell id="EI8C_f2i3DZrhKItlqoA-25" value="&lt;div&gt;&lt;b&gt;Casual&lt;/b&gt;&lt;/div&gt;&lt;div&gt;&lt;b&gt;Intermediate&lt;/b&gt;&lt;/div&gt;&lt;div&gt;&lt;b&gt;Ranked&lt;/b&gt;&lt;br&gt;&lt;/div&gt;" style="text;html=1;align=center;verticalAlign=middle;whiteSpace=wrap;rounded=0;" parent="1" vertex="1">
          <mxGeometry x="595" y="620" width="60" height="30" as="geometry" />
        </mxCell>
        <mxCell id="EI8C_f2i3DZrhKItlqoA-26" value="" style="endArrow=classic;html=1;rounded=0;" parent="1" source="EI8C_f2i3DZrhKItlqoA-8" target="EI8C_f2i3DZrhKItlqoA-27" edge="1">
          <mxGeometry width="50" height="50" relative="1" as="geometry">
            <mxPoint x="510" y="660" as="sourcePoint" />
            <mxPoint x="510" y="790" as="targetPoint" />
          </mxGeometry>
        </mxCell>
        <mxCell id="EI8C_f2i3DZrhKItlqoA-42" value="" style="edgeStyle=orthogonalEdgeStyle;rounded=0;orthogonalLoop=1;jettySize=auto;html=1;" parent="1" source="EI8C_f2i3DZrhKItlqoA-27" target="EI8C_f2i3DZrhKItlqoA-43" edge="1">
          <mxGeometry relative="1" as="geometry">
            <mxPoint x="600" y="860" as="targetPoint" />
          </mxGeometry>
        </mxCell>
        <mxCell id="EI8C_f2i3DZrhKItlqoA-27" value="For each empty user_id_2 row" style="rhombus;whiteSpace=wrap;html=1;" parent="1" vertex="1">
          <mxGeometry x="450" y="800" width="120" height="120" as="geometry" />
        </mxCell>
        <mxCell id="EI8C_f2i3DZrhKItlqoA-28" value="" style="endArrow=classic;html=1;rounded=0;" parent="1" source="EI8C_f2i3DZrhKItlqoA-27" target="EI8C_f2i3DZrhKItlqoA-31" edge="1">
          <mxGeometry width="50" height="50" relative="1" as="geometry">
            <mxPoint x="510" y="930" as="sourcePoint" />
            <mxPoint x="510" y="1000" as="targetPoint" />
          </mxGeometry>
        </mxCell>
        <mxCell id="oT2C7l8W0-6BX3yRoDzb-32" style="edgeStyle=orthogonalEdgeStyle;rounded=0;orthogonalLoop=1;jettySize=auto;html=1;exitX=0.5;exitY=1;exitDx=0;exitDy=0;" parent="1" source="EI8C_f2i3DZrhKItlqoA-31" target="EI8C_f2i3DZrhKItlqoA-38" edge="1">
          <mxGeometry relative="1" as="geometry" />
        </mxCell>
        <mxCell id="oT2C7l8W0-6BX3yRoDzb-33" value="Yes" style="edgeLabel;html=1;align=center;verticalAlign=middle;resizable=0;points=[];" parent="oT2C7l8W0-6BX3yRoDzb-32" vertex="1" connectable="0">
          <mxGeometry x="-0.0593" y="3" relative="1" as="geometry">
            <mxPoint x="-3" as="offset" />
          </mxGeometry>
        </mxCell>
        <mxCell id="EI8C_f2i3DZrhKItlqoA-31" value="&lt;div&gt;Does the row&lt;/div&gt;&lt;div&gt;match selected gamemode? (and rank)&lt;br&gt;&lt;/div&gt;" style="rhombus;whiteSpace=wrap;html=1;" parent="1" vertex="1">
          <mxGeometry x="450" y="1010" width="120" height="110" as="geometry" />
        </mxCell>
        <mxCell id="EI8C_f2i3DZrhKItlqoA-38" value="Insert user id into user_id_2: row is now full" style="rounded=1;whiteSpace=wrap;html=1;" parent="1" vertex="1">
          <mxGeometry x="450" y="1200" width="120" height="60" as="geometry" />
        </mxCell>
        <mxCell id="EI8C_f2i3DZrhKItlqoA-40" value="" style="curved=1;endArrow=classic;html=1;rounded=0;" parent="1" source="EI8C_f2i3DZrhKItlqoA-31" target="EI8C_f2i3DZrhKItlqoA-27" edge="1">
          <mxGeometry width="50" height="50" relative="1" as="geometry">
            <mxPoint x="440" y="1060" as="sourcePoint" />
            <mxPoint x="440" y="860" as="targetPoint" />
            <Array as="points">
              <mxPoint x="390" y="1030" />
              <mxPoint x="390" y="880" />
            </Array>
          </mxGeometry>
        </mxCell>
        <mxCell id="oT2C7l8W0-6BX3yRoDzb-31" value="No" style="edgeLabel;html=1;align=center;verticalAlign=middle;resizable=0;points=[];" parent="EI8C_f2i3DZrhKItlqoA-40" vertex="1" connectable="0">
          <mxGeometry x="0.0025" relative="1" as="geometry">
            <mxPoint as="offset" />
          </mxGeometry>
        </mxCell>
        <mxCell id="EI8C_f2i3DZrhKItlqoA-43" value="No rows found, create row" style="rounded=0;whiteSpace=wrap;html=1;" parent="1" vertex="1">
          <mxGeometry x="610" y="830" width="120" height="60" as="geometry" />
        </mxCell>
        <mxCell id="EI8C_f2i3DZrhKItlqoA-44" value="" style="endArrow=classic;html=1;rounded=0;" parent="1" source="EI8C_f2i3DZrhKItlqoA-38" target="EI8C_f2i3DZrhKItlqoA-45" edge="1">
          <mxGeometry width="50" height="50" relative="1" as="geometry">
            <mxPoint x="510" y="1280" as="sourcePoint" />
            <mxPoint x="510" y="1340" as="targetPoint" />
          </mxGeometry>
        </mxCell>
        <mxCell id="EI8C_f2i3DZrhKItlqoA-45" value="Create new table with mode, user id 1 and user id 2. If ranked: insert the rank" style="rounded=1;whiteSpace=wrap;html=1;" parent="1" vertex="1">
          <mxGeometry x="445" y="1350" width="130" height="70" as="geometry" />
        </mxCell>
        <mxCell id="EI8C_f2i3DZrhKItlqoA-47" value="(match + timestamp + random string)" style="swimlane;fontStyle=0;childLayout=stackLayout;horizontal=1;startSize=30;horizontalStack=0;resizeParent=1;resizeParentMax=0;resizeLast=0;collapsible=1;marginBottom=0;whiteSpace=wrap;html=1;" parent="1" vertex="1">
          <mxGeometry x="670" y="1360" width="140" height="600" as="geometry" />
        </mxCell>
        <mxCell id="EI8C_f2i3DZrhKItlqoA-48" value="user_id_1" style="text;strokeColor=none;fillColor=none;align=left;verticalAlign=middle;spacingLeft=4;spacingRight=4;overflow=hidden;points=[[0,0.5],[1,0.5]];portConstraint=eastwest;rotatable=0;whiteSpace=wrap;html=1;" parent="EI8C_f2i3DZrhKItlqoA-47" vertex="1">
          <mxGeometry y="30" width="140" height="30" as="geometry" />
        </mxCell>
        <mxCell id="EI8C_f2i3DZrhKItlqoA-49" value="user_id_2" style="text;strokeColor=none;fillColor=none;align=left;verticalAlign=middle;spacingLeft=4;spacingRight=4;overflow=hidden;points=[[0,0.5],[1,0.5]];portConstraint=eastwest;rotatable=0;whiteSpace=wrap;html=1;" parent="EI8C_f2i3DZrhKItlqoA-47" vertex="1">
          <mxGeometry y="60" width="140" height="30" as="geometry" />
        </mxCell>
        <mxCell id="EI8C_f2i3DZrhKItlqoA-50" value="gamemode" style="text;strokeColor=none;fillColor=none;align=left;verticalAlign=middle;spacingLeft=4;spacingRight=4;overflow=hidden;points=[[0,0.5],[1,0.5]];portConstraint=eastwest;rotatable=0;whiteSpace=wrap;html=1;" parent="EI8C_f2i3DZrhKItlqoA-47" vertex="1">
          <mxGeometry y="90" width="140" height="30" as="geometry" />
        </mxCell>
        <mxCell id="EI8C_f2i3DZrhKItlqoA-51" value="user_rank" style="text;strokeColor=none;fillColor=none;align=left;verticalAlign=middle;spacingLeft=4;spacingRight=4;overflow=hidden;points=[[0,0.5],[1,0.5]];portConstraint=eastwest;rotatable=0;whiteSpace=wrap;html=1;" parent="EI8C_f2i3DZrhKItlqoA-47" vertex="1">
          <mxGeometry y="120" width="140" height="30" as="geometry" />
        </mxCell>
        <mxCell id="EI8C_f2i3DZrhKItlqoA-52" value="turn (user id 1/user id 2)" style="text;strokeColor=none;fillColor=none;align=left;verticalAlign=middle;spacingLeft=4;spacingRight=4;overflow=hidden;points=[[0,0.5],[1,0.5]];portConstraint=eastwest;rotatable=0;whiteSpace=wrap;html=1;" parent="EI8C_f2i3DZrhKItlqoA-47" vertex="1">
          <mxGeometry y="150" width="140" height="30" as="geometry" />
        </mxCell>
        <mxCell id="EI8C_f2i3DZrhKItlqoA-53" value="action (move)" style="text;strokeColor=none;fillColor=none;align=left;verticalAlign=middle;spacingLeft=4;spacingRight=4;overflow=hidden;points=[[0,0.5],[1,0.5]];portConstraint=eastwest;rotatable=0;whiteSpace=wrap;html=1;" parent="EI8C_f2i3DZrhKItlqoA-47" vertex="1">
          <mxGeometry y="180" width="140" height="30" as="geometry" />
        </mxCell>
        <mxCell id="EI8C_f2i3DZrhKItlqoA-54" value="round (auto increment)" style="text;strokeColor=none;fillColor=none;align=left;verticalAlign=middle;spacingLeft=4;spacingRight=4;overflow=hidden;points=[[0,0.5],[1,0.5]];portConstraint=eastwest;rotatable=0;whiteSpace=wrap;html=1;" parent="EI8C_f2i3DZrhKItlqoA-47" vertex="1">
          <mxGeometry y="210" width="140" height="30" as="geometry" />
        </mxCell>
        <mxCell id="EI8C_f2i3DZrhKItlqoA-55" value="timer (1 min max)" style="text;strokeColor=none;fillColor=none;align=left;verticalAlign=middle;spacingLeft=4;spacingRight=4;overflow=hidden;points=[[0,0.5],[1,0.5]];portConstraint=eastwest;rotatable=0;whiteSpace=wrap;html=1;" parent="EI8C_f2i3DZrhKItlqoA-47" vertex="1">
          <mxGeometry y="240" width="140" height="30" as="geometry" />
        </mxCell>
        <mxCell id="EI8C_f2i3DZrhKItlqoA-56" value="ready (boolean)" style="text;strokeColor=none;fillColor=none;align=left;verticalAlign=middle;spacingLeft=4;spacingRight=4;overflow=hidden;points=[[0,0.5],[1,0.5]];portConstraint=eastwest;rotatable=0;whiteSpace=wrap;html=1;" parent="EI8C_f2i3DZrhKItlqoA-47" vertex="1">
          <mxGeometry y="270" width="140" height="30" as="geometry" />
        </mxCell>
        <mxCell id="EI8C_f2i3DZrhKItlqoA-57" value="upgrades1" style="text;strokeColor=none;fillColor=none;align=left;verticalAlign=middle;spacingLeft=4;spacingRight=4;overflow=hidden;points=[[0,0.5],[1,0.5]];portConstraint=eastwest;rotatable=0;whiteSpace=wrap;html=1;" parent="EI8C_f2i3DZrhKItlqoA-47" vertex="1">
          <mxGeometry y="300" width="140" height="30" as="geometry" />
        </mxCell>
        <mxCell id="EI8C_f2i3DZrhKItlqoA-58" value="upgrades2" style="text;strokeColor=none;fillColor=none;align=left;verticalAlign=middle;spacingLeft=4;spacingRight=4;overflow=hidden;points=[[0,0.5],[1,0.5]];portConstraint=eastwest;rotatable=0;whiteSpace=wrap;html=1;" parent="EI8C_f2i3DZrhKItlqoA-47" vertex="1">
          <mxGeometry y="330" width="140" height="30" as="geometry" />
        </mxCell>
        <mxCell id="EI8C_f2i3DZrhKItlqoA-62" value="health1" style="text;strokeColor=none;fillColor=none;align=left;verticalAlign=middle;spacingLeft=4;spacingRight=4;overflow=hidden;points=[[0,0.5],[1,0.5]];portConstraint=eastwest;rotatable=0;whiteSpace=wrap;html=1;" parent="EI8C_f2i3DZrhKItlqoA-47" vertex="1">
          <mxGeometry y="360" width="140" height="30" as="geometry" />
        </mxCell>
        <mxCell id="EI8C_f2i3DZrhKItlqoA-63" value="health2" style="text;strokeColor=none;fillColor=none;align=left;verticalAlign=middle;spacingLeft=4;spacingRight=4;overflow=hidden;points=[[0,0.5],[1,0.5]];portConstraint=eastwest;rotatable=0;whiteSpace=wrap;html=1;" parent="EI8C_f2i3DZrhKItlqoA-47" vertex="1">
          <mxGeometry y="390" width="140" height="30" as="geometry" />
        </mxCell>
        <mxCell id="EI8C_f2i3DZrhKItlqoA-64" value="armor1" style="text;strokeColor=none;fillColor=none;align=left;verticalAlign=middle;spacingLeft=4;spacingRight=4;overflow=hidden;points=[[0,0.5],[1,0.5]];portConstraint=eastwest;rotatable=0;whiteSpace=wrap;html=1;" parent="EI8C_f2i3DZrhKItlqoA-47" vertex="1">
          <mxGeometry y="420" width="140" height="30" as="geometry" />
        </mxCell>
        <mxCell id="EI8C_f2i3DZrhKItlqoA-65" value="armor2" style="text;strokeColor=none;fillColor=none;align=left;verticalAlign=middle;spacingLeft=4;spacingRight=4;overflow=hidden;points=[[0,0.5],[1,0.5]];portConstraint=eastwest;rotatable=0;whiteSpace=wrap;html=1;" parent="EI8C_f2i3DZrhKItlqoA-47" vertex="1">
          <mxGeometry y="450" width="140" height="30" as="geometry" />
        </mxCell>
        <mxCell id="EI8C_f2i3DZrhKItlqoA-66" value="bp1" style="text;strokeColor=none;fillColor=none;align=left;verticalAlign=middle;spacingLeft=4;spacingRight=4;overflow=hidden;points=[[0,0.5],[1,0.5]];portConstraint=eastwest;rotatable=0;whiteSpace=wrap;html=1;" parent="EI8C_f2i3DZrhKItlqoA-47" vertex="1">
          <mxGeometry y="480" width="140" height="30" as="geometry" />
        </mxCell>
        <mxCell id="EI8C_f2i3DZrhKItlqoA-67" value="bp2" style="text;strokeColor=none;fillColor=none;align=left;verticalAlign=middle;spacingLeft=4;spacingRight=4;overflow=hidden;points=[[0,0.5],[1,0.5]];portConstraint=eastwest;rotatable=0;whiteSpace=wrap;html=1;" parent="EI8C_f2i3DZrhKItlqoA-47" vertex="1">
          <mxGeometry y="510" width="140" height="30" as="geometry" />
        </mxCell>
        <mxCell id="EI8C_f2i3DZrhKItlqoA-100" value="connected1 (boolean)" style="text;strokeColor=none;fillColor=none;align=left;verticalAlign=middle;spacingLeft=4;spacingRight=4;overflow=hidden;points=[[0,0.5],[1,0.5]];portConstraint=eastwest;rotatable=0;whiteSpace=wrap;html=1;" parent="EI8C_f2i3DZrhKItlqoA-47" vertex="1">
          <mxGeometry y="540" width="140" height="30" as="geometry" />
        </mxCell>
        <mxCell id="w6-UylWCK7Cdz2--Akp1-1" value="connected2 (boolean)" style="text;strokeColor=none;fillColor=none;align=left;verticalAlign=middle;spacingLeft=4;spacingRight=4;overflow=hidden;points=[[0,0.5],[1,0.5]];portConstraint=eastwest;rotatable=0;whiteSpace=wrap;html=1;" parent="EI8C_f2i3DZrhKItlqoA-47" vertex="1">
          <mxGeometry y="570" width="140" height="30" as="geometry" />
        </mxCell>
        <mxCell id="EI8C_f2i3DZrhKItlqoA-59" value="" style="endArrow=classic;html=1;rounded=0;" parent="1" source="EI8C_f2i3DZrhKItlqoA-7" target="EI8C_f2i3DZrhKItlqoA-60" edge="1">
          <mxGeometry width="50" height="50" relative="1" as="geometry">
            <mxPoint x="330" y="670" as="sourcePoint" />
            <mxPoint x="330" y="720" as="targetPoint" />
          </mxGeometry>
        </mxCell>
        <mxCell id="oT2C7l8W0-6BX3yRoDzb-11" value="" style="edgeStyle=orthogonalEdgeStyle;rounded=0;orthogonalLoop=1;jettySize=auto;html=1;" parent="1" source="EI8C_f2i3DZrhKItlqoA-60" edge="1">
          <mxGeometry relative="1" as="geometry">
            <mxPoint x="280" y="860" as="targetPoint" />
          </mxGeometry>
        </mxCell>
        <mxCell id="EI8C_f2i3DZrhKItlqoA-60" value="Show modal with list of online friends to invite" style="rounded=1;whiteSpace=wrap;html=1;" parent="1" vertex="1">
          <mxGeometry x="270" y="740" width="120" height="60" as="geometry" />
        </mxCell>
        <mxCell id="EI8C_f2i3DZrhKItlqoA-83" value="" style="edgeStyle=orthogonalEdgeStyle;rounded=0;orthogonalLoop=1;jettySize=auto;html=1;entryX=0.5;entryY=0;entryDx=0;entryDy=0;" parent="1" source="EI8C_f2i3DZrhKItlqoA-68" target="EI8C_f2i3DZrhKItlqoA-96" edge="1">
          <mxGeometry relative="1" as="geometry" />
        </mxCell>
        <mxCell id="EI8C_f2i3DZrhKItlqoA-68" value="Assign rank and points based on outcome" style="rounded=1;whiteSpace=wrap;html=1;" parent="1" vertex="1">
          <mxGeometry x="610" y="2120" width="120" height="60" as="geometry" />
        </mxCell>
        <mxCell id="EI8C_f2i3DZrhKItlqoA-69" value="" style="endArrow=classic;html=1;rounded=0;entryX=1;entryY=0;entryDx=0;entryDy=0;exitX=0;exitY=0.5;exitDx=0;exitDy=0;" parent="1" source="EI8C_f2i3DZrhKItlqoA-66" target="EI8C_f2i3DZrhKItlqoA-70" edge="1">
          <mxGeometry width="50" height="50" relative="1" as="geometry">
            <mxPoint x="667.3199999999999" y="1890.72" as="sourcePoint" />
            <mxPoint x="590" y="1919.9999999999998" as="targetPoint" />
          </mxGeometry>
        </mxCell>
        <mxCell id="w6-UylWCK7Cdz2--Akp1-3" value="" style="edgeStyle=orthogonalEdgeStyle;rounded=0;orthogonalLoop=1;jettySize=auto;html=1;" parent="1" source="EI8C_f2i3DZrhKItlqoA-70" target="w6-UylWCK7Cdz2--Akp1-2" edge="1">
          <mxGeometry relative="1" as="geometry" />
        </mxCell>
        <mxCell id="EI8C_f2i3DZrhKItlqoA-70" value="&lt;div style=&quot;line-height: 90%;&quot; align=&quot;center&quot;&gt;Match end, decide winner&lt;br&gt;&lt;/div&gt;" style="rhombus;whiteSpace=wrap;html=1;align=center;" parent="1" vertex="1">
          <mxGeometry x="460" y="1860" width="120" height="120" as="geometry" />
        </mxCell>
        <mxCell id="EI8C_f2i3DZrhKItlqoA-71" value="" style="endArrow=classic;html=1;rounded=0;entryX=0.5;entryY=0;entryDx=0;entryDy=0;exitX=1;exitY=0.5;exitDx=0;exitDy=0;" parent="1" source="EI8C_f2i3DZrhKItlqoA-84" target="EI8C_f2i3DZrhKItlqoA-68" edge="1">
          <mxGeometry width="50" height="50" relative="1" as="geometry">
            <mxPoint x="530" y="2040" as="sourcePoint" />
            <mxPoint x="580" y="1990" as="targetPoint" />
            <Array as="points">
              <mxPoint x="670" y="2045" />
            </Array>
          </mxGeometry>
        </mxCell>
        <mxCell id="oT2C7l8W0-6BX3yRoDzb-34" value="Yes" style="edgeLabel;html=1;align=center;verticalAlign=middle;resizable=0;points=[];" parent="EI8C_f2i3DZrhKItlqoA-71" vertex="1" connectable="0">
          <mxGeometry x="-0.287" relative="1" as="geometry">
            <mxPoint as="offset" />
          </mxGeometry>
        </mxCell>
        <mxCell id="EI8C_f2i3DZrhKItlqoA-75" value="If user_id = winner" style="rhombus;whiteSpace=wrap;html=1;" parent="1" vertex="1">
          <mxGeometry x="790" y="2110" width="80" height="80" as="geometry" />
        </mxCell>
        <mxCell id="EI8C_f2i3DZrhKItlqoA-76" value="" style="endArrow=classic;html=1;rounded=0;exitX=1;exitY=0;exitDx=0;exitDy=0;" parent="1" source="EI8C_f2i3DZrhKItlqoA-75" target="EI8C_f2i3DZrhKItlqoA-77" edge="1">
          <mxGeometry width="50" height="50" relative="1" as="geometry">
            <mxPoint x="700" y="2020" as="sourcePoint" />
            <mxPoint x="730" y="2000" as="targetPoint" />
          </mxGeometry>
        </mxCell>
        <mxCell id="oT2C7l8W0-6BX3yRoDzb-36" value="Yes" style="edgeLabel;html=1;align=center;verticalAlign=middle;resizable=0;points=[];" parent="EI8C_f2i3DZrhKItlqoA-76" vertex="1" connectable="0">
          <mxGeometry x="-0.0096" relative="1" as="geometry">
            <mxPoint y="1" as="offset" />
          </mxGeometry>
        </mxCell>
        <mxCell id="EI8C_f2i3DZrhKItlqoA-77" value="+ Rank points/ rank upgrade" style="rounded=1;whiteSpace=wrap;html=1;" parent="1" vertex="1">
          <mxGeometry x="929.9999999999998" y="2072.5" width="120" height="60" as="geometry" />
        </mxCell>
        <mxCell id="EI8C_f2i3DZrhKItlqoA-79" value="" style="endArrow=classic;html=1;rounded=0;exitX=0.803;exitY=0.688;exitDx=0;exitDy=0;exitPerimeter=0;entryX=0;entryY=0.5;entryDx=0;entryDy=0;" parent="1" source="EI8C_f2i3DZrhKItlqoA-75" target="EI8C_f2i3DZrhKItlqoA-81" edge="1">
          <mxGeometry width="50" height="50" relative="1" as="geometry">
            <mxPoint x="710" y="2030" as="sourcePoint" />
            <mxPoint x="730" y="2070" as="targetPoint" />
            <Array as="points" />
          </mxGeometry>
        </mxCell>
        <mxCell id="oT2C7l8W0-6BX3yRoDzb-37" value="No" style="edgeLabel;html=1;align=center;verticalAlign=middle;resizable=0;points=[];" parent="EI8C_f2i3DZrhKItlqoA-79" vertex="1" connectable="0">
          <mxGeometry x="-0.1444" y="-2" relative="1" as="geometry">
            <mxPoint as="offset" />
          </mxGeometry>
        </mxCell>
        <mxCell id="EI8C_f2i3DZrhKItlqoA-81" value="- Rank points/ rank decrease" style="rounded=1;whiteSpace=wrap;html=1;" parent="1" vertex="1">
          <mxGeometry x="929.9999999999998" y="2167.5" width="120" height="60" as="geometry" />
        </mxCell>
        <mxCell id="EI8C_f2i3DZrhKItlqoA-82" value="Archive match table, redirect players to menu" style="whiteSpace=wrap;html=1;rounded=1;" parent="1" vertex="1">
          <mxGeometry x="460" y="2330" width="120" height="60" as="geometry" />
        </mxCell>
        <mxCell id="EI8C_f2i3DZrhKItlqoA-86" value="" style="endArrow=classic;html=1;rounded=0;entryX=0.304;entryY=0.169;entryDx=0;entryDy=0;entryPerimeter=0;" parent="1" source="EI8C_f2i3DZrhKItlqoA-70" target="EI8C_f2i3DZrhKItlqoA-84" edge="1">
          <mxGeometry width="50" height="50" relative="1" as="geometry">
            <mxPoint x="539" y="1961" as="sourcePoint" />
            <mxPoint x="600" y="2090" as="targetPoint" />
          </mxGeometry>
        </mxCell>
        <mxCell id="EI8C_f2i3DZrhKItlqoA-84" value="If ranked:" style="rhombus;whiteSpace=wrap;html=1;" parent="1" vertex="1">
          <mxGeometry x="500" y="2000" width="90" height="90" as="geometry" />
        </mxCell>
        <mxCell id="EI8C_f2i3DZrhKItlqoA-92" value="" style="endArrow=classic;html=1;rounded=0;" parent="1" source="EI8C_f2i3DZrhKItlqoA-84" edge="1">
          <mxGeometry width="50" height="50" relative="1" as="geometry">
            <mxPoint x="650" y="2040" as="sourcePoint" />
            <mxPoint x="520" y="2140" as="targetPoint" />
          </mxGeometry>
        </mxCell>
        <mxCell id="oT2C7l8W0-6BX3yRoDzb-35" value="No" style="edgeLabel;html=1;align=center;verticalAlign=middle;resizable=0;points=[];" parent="EI8C_f2i3DZrhKItlqoA-92" vertex="1" connectable="0">
          <mxGeometry x="-0.2148" y="-2" relative="1" as="geometry">
            <mxPoint as="offset" />
          </mxGeometry>
        </mxCell>
        <mxCell id="EI8C_f2i3DZrhKItlqoA-94" value="" style="shape=flexArrow;endArrow=classic;html=1;rounded=0;entryX=0;entryY=0.5;entryDx=0;entryDy=0;exitX=1;exitY=0.5;exitDx=0;exitDy=0;" parent="1" source="EI8C_f2i3DZrhKItlqoA-68" target="EI8C_f2i3DZrhKItlqoA-75" edge="1">
          <mxGeometry width="50" height="50" relative="1" as="geometry">
            <mxPoint x="580" y="2230" as="sourcePoint" />
            <mxPoint x="630" y="2180" as="targetPoint" />
          </mxGeometry>
        </mxCell>
        <mxCell id="EI8C_f2i3DZrhKItlqoA-96" value="Assign rewards based on outcome (rewards, currency)" style="rounded=1;whiteSpace=wrap;html=1;" parent="1" vertex="1">
          <mxGeometry x="460" y="2210" width="120" height="60" as="geometry" />
        </mxCell>
        <mxCell id="EI8C_f2i3DZrhKItlqoA-97" value="" style="endArrow=classic;html=1;rounded=0;exitX=0.5;exitY=1;exitDx=0;exitDy=0;" parent="1" source="EI8C_f2i3DZrhKItlqoA-96" target="EI8C_f2i3DZrhKItlqoA-82" edge="1">
          <mxGeometry width="50" height="50" relative="1" as="geometry">
            <mxPoint x="610" y="2300" as="sourcePoint" />
            <mxPoint x="660" y="2250" as="targetPoint" />
          </mxGeometry>
        </mxCell>
        <mxCell id="EI8C_f2i3DZrhKItlqoA-102" value="" style="curved=1;endArrow=classic;html=1;rounded=0;" parent="1" source="EI8C_f2i3DZrhKItlqoA-47" target="EI8C_f2i3DZrhKItlqoA-18" edge="1">
          <mxGeometry width="50" height="50" relative="1" as="geometry">
            <mxPoint x="830" y="1390" as="sourcePoint" />
            <mxPoint x="840" y="800" as="targetPoint" />
            <Array as="points">
              <mxPoint x="920" y="1140" />
              <mxPoint x="910" y="790" />
            </Array>
          </mxGeometry>
        </mxCell>
        <mxCell id="oT2C7l8W0-6BX3yRoDzb-16" style="edgeStyle=orthogonalEdgeStyle;rounded=0;orthogonalLoop=1;jettySize=auto;html=1;exitX=0.75;exitY=1;exitDx=0;exitDy=0;" parent="1" source="oT2C7l8W0-6BX3yRoDzb-14" target="oT2C7l8W0-6BX3yRoDzb-15" edge="1">
          <mxGeometry relative="1" as="geometry" />
        </mxCell>
        <mxCell id="oT2C7l8W0-6BX3yRoDzb-14" value="When a friend is invited to a duel" style="rounded=1;whiteSpace=wrap;html=1;" parent="1" vertex="1">
          <mxGeometry x="220" y="860" width="120" height="60" as="geometry" />
        </mxCell>
        <mxCell id="oT2C7l8W0-6BX3yRoDzb-17" style="edgeStyle=orthogonalEdgeStyle;rounded=0;orthogonalLoop=1;jettySize=auto;html=1;exitX=0.5;exitY=1;exitDx=0;exitDy=0;" parent="1" source="oT2C7l8W0-6BX3yRoDzb-15" target="oT2C7l8W0-6BX3yRoDzb-18" edge="1">
          <mxGeometry relative="1" as="geometry">
            <mxPoint x="309.6923076923076" y="1080" as="targetPoint" />
          </mxGeometry>
        </mxCell>
        <mxCell id="oT2C7l8W0-6BX3yRoDzb-19" style="edgeStyle=orthogonalEdgeStyle;rounded=0;orthogonalLoop=1;jettySize=auto;html=1;exitX=0.5;exitY=1;exitDx=0;exitDy=0;" parent="1" source="oT2C7l8W0-6BX3yRoDzb-15" target="oT2C7l8W0-6BX3yRoDzb-20" edge="1">
          <mxGeometry relative="1" as="geometry">
            <mxPoint x="309.6923076923076" y="1080" as="targetPoint" />
          </mxGeometry>
        </mxCell>
        <mxCell id="oT2C7l8W0-6BX3yRoDzb-21" style="edgeStyle=orthogonalEdgeStyle;rounded=0;orthogonalLoop=1;jettySize=auto;html=1;exitX=0.5;exitY=1;exitDx=0;exitDy=0;" parent="1" source="oT2C7l8W0-6BX3yRoDzb-15" target="oT2C7l8W0-6BX3yRoDzb-22" edge="1">
          <mxGeometry relative="1" as="geometry">
            <mxPoint x="380" y="1080" as="targetPoint" />
            <Array as="points">
              <mxPoint x="310" y="1080" />
              <mxPoint x="400" y="1080" />
            </Array>
          </mxGeometry>
        </mxCell>
        <mxCell id="oT2C7l8W0-6BX3yRoDzb-25" value="Decline" style="edgeLabel;html=1;align=center;verticalAlign=middle;resizable=0;points=[];" parent="oT2C7l8W0-6BX3yRoDzb-21" vertex="1" connectable="0">
          <mxGeometry x="-0.7682" relative="1" as="geometry">
            <mxPoint as="offset" />
          </mxGeometry>
        </mxCell>
        <mxCell id="oT2C7l8W0-6BX3yRoDzb-29" value="" style="edgeStyle=orthogonalEdgeStyle;rounded=0;orthogonalLoop=1;jettySize=auto;html=1;" parent="1" source="oT2C7l8W0-6BX3yRoDzb-15" target="oT2C7l8W0-6BX3yRoDzb-28" edge="1">
          <mxGeometry relative="1" as="geometry" />
        </mxCell>
        <mxCell id="oT2C7l8W0-6BX3yRoDzb-30" value="Accept" style="edgeLabel;html=1;align=center;verticalAlign=middle;resizable=0;points=[];" parent="oT2C7l8W0-6BX3yRoDzb-29" vertex="1" connectable="0">
          <mxGeometry x="0.037" y="3" relative="1" as="geometry">
            <mxPoint y="-3" as="offset" />
          </mxGeometry>
        </mxCell>
        <mxCell id="oT2C7l8W0-6BX3yRoDzb-15" value="The invited user gets an invite popup" style="ellipse;whiteSpace=wrap;html=1;aspect=fixed;" parent="1" vertex="1">
          <mxGeometry x="270" y="960" width="80" height="80" as="geometry" />
        </mxCell>
        <mxCell id="oT2C7l8W0-6BX3yRoDzb-18" value="Popup gets removed" style="rounded=1;whiteSpace=wrap;html=1;" parent="1" vertex="1">
          <mxGeometry x="190" y="1120" width="70" height="50" as="geometry" />
        </mxCell>
        <mxCell id="oT2C7l8W0-6BX3yRoDzb-20" value="Invite fails" style="rounded=1;whiteSpace=wrap;html=1;" parent="1" vertex="1">
          <mxGeometry x="287.5" y="1120" width="45" height="50" as="geometry" />
        </mxCell>
        <mxCell id="oT2C7l8W0-6BX3yRoDzb-22" value="user_id_1 redirected to duel screen" style="rounded=1;whiteSpace=wrap;html=1;" parent="1" vertex="1">
          <mxGeometry x="360" y="1120" width="80" height="50" as="geometry" />
        </mxCell>
        <mxCell id="oT2C7l8W0-6BX3yRoDzb-38" style="edgeStyle=orthogonalEdgeStyle;rounded=0;orthogonalLoop=1;jettySize=auto;html=1;exitX=0.5;exitY=1;exitDx=0;exitDy=0;" parent="1" source="oT2C7l8W0-6BX3yRoDzb-28" target="oT2C7l8W0-6BX3yRoDzb-39" edge="1">
          <mxGeometry relative="1" as="geometry">
            <mxPoint x="125" y="1100" as="targetPoint" />
          </mxGeometry>
        </mxCell>
        <mxCell id="oT2C7l8W0-6BX3yRoDzb-28" value="user_id_2 gets redirected to the duel matchmaking screen" style="rounded=1;whiteSpace=wrap;html=1;" parent="1" vertex="1">
          <mxGeometry x="60" y="970" width="130" height="60" as="geometry" />
        </mxCell>
        <mxCell id="oT2C7l8W0-6BX3yRoDzb-51" style="edgeStyle=orthogonalEdgeStyle;rounded=0;orthogonalLoop=1;jettySize=auto;html=1;exitX=0.5;exitY=1;exitDx=0;exitDy=0;" parent="1" source="oT2C7l8W0-6BX3yRoDzb-39" target="oT2C7l8W0-6BX3yRoDzb-52" edge="1">
          <mxGeometry relative="1" as="geometry">
            <mxPoint x="160" y="1240" as="targetPoint" />
          </mxGeometry>
        </mxCell>
        <mxCell id="oT2C7l8W0-6BX3yRoDzb-39" value="Insert user id into user_id_2: row is now full" style="rounded=1;whiteSpace=wrap;html=1;" parent="1" vertex="1">
          <mxGeometry x="65" y="1200" width="120" height="60" as="geometry" />
        </mxCell>
        <mxCell id="oT2C7l8W0-6BX3yRoDzb-42" value="Invite Matchmaking" style="swimlane;fontStyle=0;childLayout=stackLayout;horizontal=1;startSize=30;horizontalStack=0;resizeParent=1;resizeParentMax=0;resizeLast=0;collapsible=1;marginBottom=0;whiteSpace=wrap;html=1;" parent="1" vertex="1">
          <mxGeometry x="20" y="600" width="140" height="150" as="geometry">
            <mxRectangle x="690" y="600" width="140" height="30" as="alternateBounds" />
          </mxGeometry>
        </mxCell>
        <mxCell id="oT2C7l8W0-6BX3yRoDzb-43" value="invite_id" style="text;strokeColor=none;fillColor=none;align=left;verticalAlign=middle;spacingLeft=4;spacingRight=4;overflow=hidden;points=[[0,0.5],[1,0.5]];portConstraint=eastwest;rotatable=0;whiteSpace=wrap;html=1;" parent="oT2C7l8W0-6BX3yRoDzb-42" vertex="1">
          <mxGeometry y="30" width="140" height="30" as="geometry" />
        </mxCell>
        <mxCell id="oT2C7l8W0-6BX3yRoDzb-44" value="user_id_1" style="text;strokeColor=none;fillColor=none;align=left;verticalAlign=middle;spacingLeft=4;spacingRight=4;overflow=hidden;points=[[0,0.5],[1,0.5]];portConstraint=eastwest;rotatable=0;whiteSpace=wrap;html=1;" parent="oT2C7l8W0-6BX3yRoDzb-42" vertex="1">
          <mxGeometry y="60" width="140" height="30" as="geometry" />
        </mxCell>
        <mxCell id="oT2C7l8W0-6BX3yRoDzb-45" value="user_id_2" style="text;strokeColor=none;fillColor=none;align=left;verticalAlign=middle;spacingLeft=4;spacingRight=4;overflow=hidden;points=[[0,0.5],[1,0.5]];portConstraint=eastwest;rotatable=0;whiteSpace=wrap;html=1;" parent="oT2C7l8W0-6BX3yRoDzb-42" vertex="1">
          <mxGeometry y="90" width="140" height="30" as="geometry" />
        </mxCell>
        <mxCell id="oT2C7l8W0-6BX3yRoDzb-48" value="match_name" style="text;strokeColor=none;fillColor=none;align=left;verticalAlign=middle;spacingLeft=4;spacingRight=4;overflow=hidden;points=[[0,0.5],[1,0.5]];portConstraint=eastwest;rotatable=0;whiteSpace=wrap;html=1;" parent="oT2C7l8W0-6BX3yRoDzb-42" vertex="1">
          <mxGeometry y="120" width="140" height="30" as="geometry" />
        </mxCell>
        <mxCell id="oT2C7l8W0-6BX3yRoDzb-63" style="edgeStyle=orthogonalEdgeStyle;rounded=0;orthogonalLoop=1;jettySize=auto;html=1;exitX=1;exitY=0.5;exitDx=0;exitDy=0;entryX=-0.011;entryY=0.043;entryDx=0;entryDy=0;entryPerimeter=0;" parent="1" source="oT2C7l8W0-6BX3yRoDzb-52" target="EI8C_f2i3DZrhKItlqoA-47" edge="1">
          <mxGeometry relative="1" as="geometry">
            <mxPoint x="640" y="1410" as="targetPoint" />
            <Array as="points">
              <mxPoint x="390" y="1385" />
              <mxPoint x="390" y="1430" />
              <mxPoint x="590" y="1430" />
              <mxPoint x="590" y="1405" />
            </Array>
          </mxGeometry>
        </mxCell>
        <mxCell id="oT2C7l8W0-6BX3yRoDzb-52" value="Create new table in matches with user_id_1, user_id_2 and match_name" style="rounded=1;whiteSpace=wrap;html=1;" parent="1" vertex="1">
          <mxGeometry x="120" y="1350" width="140" height="70" as="geometry" />
        </mxCell>
        <mxCell id="oT2C7l8W0-6BX3yRoDzb-55" value="" style="endArrow=classic;html=1;rounded=0;exitX=1;exitY=0.5;exitDx=0;exitDy=0;entryX=-0.004;entryY=0.025;entryDx=0;entryDy=0;entryPerimeter=0;" parent="1" source="EI8C_f2i3DZrhKItlqoA-45" target="EI8C_f2i3DZrhKItlqoA-47" edge="1">
          <mxGeometry width="50" height="50" relative="1" as="geometry">
            <mxPoint x="580" y="1390" as="sourcePoint" />
            <mxPoint x="630" y="1340" as="targetPoint" />
          </mxGeometry>
        </mxCell>
        <mxCell id="oT2C7l8W0-6BX3yRoDzb-58" value="" style="curved=1;endArrow=classic;html=1;rounded=0;entryX=1;entryY=0.5;entryDx=0;entryDy=0;" parent="1" source="oT2C7l8W0-6BX3yRoDzb-39" target="oT2C7l8W0-6BX3yRoDzb-45" edge="1">
          <mxGeometry width="50" height="50" relative="1" as="geometry">
            <mxPoint x="50" y="1230" as="sourcePoint" />
            <mxPoint x="100" y="1180" as="targetPoint" />
            <Array as="points">
              <mxPoint x="20" y="1150" />
              <mxPoint x="20" y="920" />
              <mxPoint x="250" y="790" />
            </Array>
          </mxGeometry>
        </mxCell>
        <mxCell id="oT2C7l8W0-6BX3yRoDzb-65" value="Cards" style="swimlane;fontStyle=0;childLayout=stackLayout;horizontal=1;startSize=30;horizontalStack=0;resizeParent=1;resizeParentMax=0;resizeLast=0;collapsible=1;marginBottom=0;whiteSpace=wrap;html=1;" parent="1" vertex="1">
          <mxGeometry x="910" y="80" width="170" height="420" as="geometry" />
        </mxCell>
        <mxCell id="oT2C7l8W0-6BX3yRoDzb-66" value="card_id (int)" style="text;strokeColor=none;fillColor=none;align=left;verticalAlign=middle;spacingLeft=4;spacingRight=4;overflow=hidden;points=[[0,0.5],[1,0.5]];portConstraint=eastwest;rotatable=0;whiteSpace=wrap;html=1;" parent="oT2C7l8W0-6BX3yRoDzb-65" vertex="1">
          <mxGeometry y="30" width="170" height="30" as="geometry" />
        </mxCell>
        <mxCell id="oT2C7l8W0-6BX3yRoDzb-67" value="name" style="text;strokeColor=none;fillColor=none;align=left;verticalAlign=middle;spacingLeft=4;spacingRight=4;overflow=hidden;points=[[0,0.5],[1,0.5]];portConstraint=eastwest;rotatable=0;whiteSpace=wrap;html=1;" parent="oT2C7l8W0-6BX3yRoDzb-65" vertex="1">
          <mxGeometry y="60" width="170" height="30" as="geometry" />
        </mxCell>
        <mxCell id="wGgicrv_s1oQboJG13sr-10" value="description (paragraph)" style="text;strokeColor=none;fillColor=none;align=left;verticalAlign=middle;spacingLeft=4;spacingRight=4;overflow=hidden;points=[[0,0.5],[1,0.5]];portConstraint=eastwest;rotatable=0;whiteSpace=wrap;html=1;" parent="oT2C7l8W0-6BX3yRoDzb-65" vertex="1">
          <mxGeometry y="90" width="170" height="30" as="geometry" />
        </mxCell>
        <mxCell id="oT2C7l8W0-6BX3yRoDzb-72" value="bp (int)" style="text;strokeColor=none;fillColor=none;align=left;verticalAlign=middle;spacingLeft=4;spacingRight=4;overflow=hidden;points=[[0,0.5],[1,0.5]];portConstraint=eastwest;rotatable=0;whiteSpace=wrap;html=1;" parent="oT2C7l8W0-6BX3yRoDzb-65" vertex="1">
          <mxGeometry y="120" width="170" height="30" as="geometry" />
        </mxCell>
        <mxCell id="oT2C7l8W0-6BX3yRoDzb-73" value="damage (int)" style="text;strokeColor=none;fillColor=none;align=left;verticalAlign=middle;spacingLeft=4;spacingRight=4;overflow=hidden;points=[[0,0.5],[1,0.5]];portConstraint=eastwest;rotatable=0;whiteSpace=wrap;html=1;" parent="oT2C7l8W0-6BX3yRoDzb-65" vertex="1">
          <mxGeometry y="150" width="170" height="30" as="geometry" />
        </mxCell>
        <mxCell id="oT2C7l8W0-6BX3yRoDzb-75" value="healing (int)" style="text;strokeColor=none;fillColor=none;align=left;verticalAlign=middle;spacingLeft=4;spacingRight=4;overflow=hidden;points=[[0,0.5],[1,0.5]];portConstraint=eastwest;rotatable=0;whiteSpace=wrap;html=1;" parent="oT2C7l8W0-6BX3yRoDzb-65" vertex="1">
          <mxGeometry y="180" width="170" height="30" as="geometry" />
        </mxCell>
        <mxCell id="oT2C7l8W0-6BX3yRoDzb-74" value="special (boolean)" style="text;strokeColor=none;fillColor=none;align=left;verticalAlign=middle;spacingLeft=4;spacingRight=4;overflow=hidden;points=[[0,0.5],[1,0.5]];portConstraint=eastwest;rotatable=0;whiteSpace=wrap;html=1;" parent="oT2C7l8W0-6BX3yRoDzb-65" vertex="1">
          <mxGeometry y="210" width="170" height="30" as="geometry" />
        </mxCell>
        <mxCell id="oT2C7l8W0-6BX3yRoDzb-71" value="effects (boolean) *array" style="text;strokeColor=none;fillColor=none;align=left;verticalAlign=middle;spacingLeft=4;spacingRight=4;overflow=hidden;points=[[0,0.5],[1,0.5]];portConstraint=eastwest;rotatable=0;whiteSpace=wrap;html=1;" parent="oT2C7l8W0-6BX3yRoDzb-65" vertex="1">
          <mxGeometry y="240" width="170" height="30" as="geometry" />
        </mxCell>
        <mxCell id="oT2C7l8W0-6BX3yRoDzb-77" value="combo_list (boolean) *array" style="text;strokeColor=none;fillColor=none;align=left;verticalAlign=middle;spacingLeft=4;spacingRight=4;overflow=hidden;points=[[0,0.5],[1,0.5]];portConstraint=eastwest;rotatable=0;whiteSpace=wrap;html=1;" parent="oT2C7l8W0-6BX3yRoDzb-65" vertex="1">
          <mxGeometry y="270" width="170" height="30" as="geometry" />
        </mxCell>
        <mxCell id="oT2C7l8W0-6BX3yRoDzb-78" value="evolution (boolean) *array" style="text;strokeColor=none;fillColor=none;align=left;verticalAlign=middle;spacingLeft=4;spacingRight=4;overflow=hidden;points=[[0,0.5],[1,0.5]];portConstraint=eastwest;rotatable=0;whiteSpace=wrap;html=1;" parent="oT2C7l8W0-6BX3yRoDzb-65" vertex="1">
          <mxGeometry y="300" width="170" height="30" as="geometry" />
        </mxCell>
        <mxCell id="oT2C7l8W0-6BX3yRoDzb-79" value="rarity" style="text;strokeColor=none;fillColor=none;align=left;verticalAlign=middle;spacingLeft=4;spacingRight=4;overflow=hidden;points=[[0,0.5],[1,0.5]];portConstraint=eastwest;rotatable=0;whiteSpace=wrap;html=1;" parent="oT2C7l8W0-6BX3yRoDzb-65" vertex="1">
          <mxGeometry y="330" width="170" height="30" as="geometry" />
        </mxCell>
        <mxCell id="oT2C7l8W0-6BX3yRoDzb-70" value="tag (boolean) *array" style="text;strokeColor=none;fillColor=none;align=left;verticalAlign=middle;spacingLeft=4;spacingRight=4;overflow=hidden;points=[[0,0.5],[1,0.5]];portConstraint=eastwest;rotatable=0;whiteSpace=wrap;html=1;" parent="oT2C7l8W0-6BX3yRoDzb-65" vertex="1">
          <mxGeometry y="360" width="170" height="30" as="geometry" />
        </mxCell>
        <mxCell id="oT2C7l8W0-6BX3yRoDzb-68" value="texture" style="text;strokeColor=none;fillColor=none;align=left;verticalAlign=middle;spacingLeft=4;spacingRight=4;overflow=hidden;points=[[0,0.5],[1,0.5]];portConstraint=eastwest;rotatable=0;whiteSpace=wrap;html=1;" parent="oT2C7l8W0-6BX3yRoDzb-65" vertex="1">
          <mxGeometry y="390" width="170" height="30" as="geometry" />
        </mxCell>
        <mxCell id="pQwzymtS64x7x1kbTtJx-16" style="edgeStyle=orthogonalEdgeStyle;rounded=0;orthogonalLoop=1;jettySize=auto;html=1;entryX=0.5;entryY=0;entryDx=0;entryDy=0;" parent="1" source="pQwzymtS64x7x1kbTtJx-1" target="pQwzymtS64x7x1kbTtJx-11" edge="1">
          <mxGeometry relative="1" as="geometry" />
        </mxCell>
        <mxCell id="pQwzymtS64x7x1kbTtJx-1" value="&lt;font style=&quot;font-size: 16px;&quot;&gt;NocSkir database&lt;/font&gt;" style="shape=cylinder3;whiteSpace=wrap;html=1;boundedLbl=1;backgroundOutline=1;size=15;" parent="1" vertex="1">
          <mxGeometry x="1590" y="680" width="152.5" height="180" as="geometry" />
        </mxCell>
        <mxCell id="pQwzymtS64x7x1kbTtJx-2" value="&lt;h1 style=&quot;margin-top: 0px;&quot;&gt;&lt;i&gt;Match logic&lt;/i&gt;&lt;/h1&gt;&lt;p&gt;&lt;i&gt;How the information transportation and real time logic will happen between the users/players in a set interval&lt;/i&gt;&lt;/p&gt;" style="text;html=1;whiteSpace=wrap;overflow=hidden;rounded=0;" parent="1" vertex="1">
          <mxGeometry x="1585" y="550" width="180" height="120" as="geometry" />
        </mxCell>
        <mxCell id="pQwzymtS64x7x1kbTtJx-5" value="&lt;h1 style=&quot;margin-top: 0px;&quot;&gt;&lt;i&gt;Matchmaking&lt;/i&gt;&lt;/h1&gt;&lt;p&gt;&lt;i&gt;The creation of tables and linking players together through the preditermined algorithms&lt;/i&gt;&lt;/p&gt;" style="text;html=1;whiteSpace=wrap;overflow=hidden;rounded=0;" parent="1" vertex="1">
          <mxGeometry x="335" y="120" width="180" height="120" as="geometry" />
        </mxCell>
        <mxCell id="pQwzymtS64x7x1kbTtJx-6" value="&lt;h1 style=&quot;margin-top: 0px;&quot;&gt;&lt;i&gt;Gameplay logic: Cards&lt;/i&gt;&lt;/h1&gt;&lt;p&gt;&lt;i&gt;All the information about any card easily stored and accessed through multiple in-detail tables&lt;/i&gt;&lt;/p&gt;" style="text;html=1;whiteSpace=wrap;overflow=hidden;rounded=0;" parent="1" vertex="1">
          <mxGeometry x="1000" y="-60" width="220" height="120" as="geometry" />
        </mxCell>
        <mxCell id="pQwzymtS64x7x1kbTtJx-65" value="" style="edgeStyle=orthogonalEdgeStyle;rounded=0;orthogonalLoop=1;jettySize=auto;html=1;" parent="1" source="pQwzymtS64x7x1kbTtJx-11" target="pQwzymtS64x7x1kbTtJx-64" edge="1">
          <mxGeometry relative="1" as="geometry" />
        </mxCell>
        <mxCell id="pQwzymtS64x7x1kbTtJx-11" value="users" style="swimlane;fontStyle=0;childLayout=stackLayout;horizontal=1;startSize=30;horizontalStack=0;resizeParent=1;resizeParentMax=0;resizeLast=0;collapsible=1;marginBottom=0;whiteSpace=wrap;html=1;" parent="1" vertex="1">
          <mxGeometry x="1400" y="800" width="140" height="270" as="geometry" />
        </mxCell>
        <mxCell id="pQwzymtS64x7x1kbTtJx-12" value="user_id" style="text;strokeColor=none;fillColor=none;align=left;verticalAlign=middle;spacingLeft=4;spacingRight=4;overflow=hidden;points=[[0,0.5],[1,0.5]];portConstraint=eastwest;rotatable=0;whiteSpace=wrap;html=1;" parent="pQwzymtS64x7x1kbTtJx-11" vertex="1">
          <mxGeometry y="30" width="140" height="30" as="geometry" />
        </mxCell>
        <mxCell id="pQwzymtS64x7x1kbTtJx-13" value="username" style="text;strokeColor=none;fillColor=none;align=left;verticalAlign=middle;spacingLeft=4;spacingRight=4;overflow=hidden;points=[[0,0.5],[1,0.5]];portConstraint=eastwest;rotatable=0;whiteSpace=wrap;html=1;" parent="pQwzymtS64x7x1kbTtJx-11" vertex="1">
          <mxGeometry y="60" width="140" height="30" as="geometry" />
        </mxCell>
        <mxCell id="pQwzymtS64x7x1kbTtJx-14" value="nickname" style="text;strokeColor=none;fillColor=none;align=left;verticalAlign=middle;spacingLeft=4;spacingRight=4;overflow=hidden;points=[[0,0.5],[1,0.5]];portConstraint=eastwest;rotatable=0;whiteSpace=wrap;html=1;" parent="pQwzymtS64x7x1kbTtJx-11" vertex="1">
          <mxGeometry y="90" width="140" height="30" as="geometry" />
        </mxCell>
        <mxCell id="wGgicrv_s1oQboJG13sr-8" value="border" style="text;strokeColor=none;fillColor=none;align=left;verticalAlign=middle;spacingLeft=4;spacingRight=4;overflow=hidden;points=[[0,0.5],[1,0.5]];portConstraint=eastwest;rotatable=0;whiteSpace=wrap;html=1;" parent="pQwzymtS64x7x1kbTtJx-11" vertex="1">
          <mxGeometry y="120" width="140" height="30" as="geometry" />
        </mxCell>
        <mxCell id="wGgicrv_s1oQboJG13sr-9" value="pfp" style="text;strokeColor=none;fillColor=none;align=left;verticalAlign=middle;spacingLeft=4;spacingRight=4;overflow=hidden;points=[[0,0.5],[1,0.5]];portConstraint=eastwest;rotatable=0;whiteSpace=wrap;html=1;" parent="pQwzymtS64x7x1kbTtJx-11" vertex="1">
          <mxGeometry y="150" width="140" height="30" as="geometry" />
        </mxCell>
        <mxCell id="pQwzymtS64x7x1kbTtJx-18" value="user_rank" style="text;strokeColor=none;fillColor=none;align=left;verticalAlign=middle;spacingLeft=4;spacingRight=4;overflow=hidden;points=[[0,0.5],[1,0.5]];portConstraint=eastwest;rotatable=0;whiteSpace=wrap;html=1;" parent="pQwzymtS64x7x1kbTtJx-11" vertex="1">
          <mxGeometry y="180" width="140" height="30" as="geometry" />
        </mxCell>
        <mxCell id="pQwzymtS64x7x1kbTtJx-19" value="deck" style="text;strokeColor=none;fillColor=none;align=left;verticalAlign=middle;spacingLeft=4;spacingRight=4;overflow=hidden;points=[[0,0.5],[1,0.5]];portConstraint=eastwest;rotatable=0;whiteSpace=wrap;html=1;" parent="pQwzymtS64x7x1kbTtJx-11" vertex="1">
          <mxGeometry y="210" width="140" height="30" as="geometry" />
        </mxCell>
        <mxCell id="pQwzymtS64x7x1kbTtJx-20" value="character (?)" style="text;strokeColor=none;fillColor=none;align=left;verticalAlign=middle;spacingLeft=4;spacingRight=4;overflow=hidden;points=[[0,0.5],[1,0.5]];portConstraint=eastwest;rotatable=0;whiteSpace=wrap;html=1;" parent="pQwzymtS64x7x1kbTtJx-11" vertex="1">
          <mxGeometry y="240" width="140" height="30" as="geometry" />
        </mxCell>
        <mxCell id="pQwzymtS64x7x1kbTtJx-41" value="" style="shape=flexArrow;endArrow=classic;startArrow=classic;html=1;rounded=0;width=20;" parent="1" source="pQwzymtS64x7x1kbTtJx-42" target="pQwzymtS64x7x1kbTtJx-1" edge="1">
          <mxGeometry width="100" height="100" relative="1" as="geometry">
            <mxPoint x="1666" y="1205" as="sourcePoint" />
            <mxPoint x="1720" y="955" as="targetPoint" />
          </mxGeometry>
        </mxCell>
        <mxCell id="pQwzymtS64x7x1kbTtJx-43" value="&lt;font style=&quot;font-size: 25px;&quot;&gt;5s&lt;/font&gt;" style="edgeLabel;html=1;align=center;verticalAlign=middle;resizable=0;points=[];" parent="pQwzymtS64x7x1kbTtJx-41" vertex="1" connectable="0">
          <mxGeometry x="0.0276" y="-1" relative="1" as="geometry">
            <mxPoint x="11" as="offset" />
          </mxGeometry>
        </mxCell>
        <mxCell id="pQwzymtS64x7x1kbTtJx-42" value="User 1 client" style="shape=process;whiteSpace=wrap;html=1;backgroundOutline=1;" parent="1" vertex="1">
          <mxGeometry x="1950" y="800" width="186" height="93" as="geometry" />
        </mxCell>
        <mxCell id="pQwzymtS64x7x1kbTtJx-45" value="" style="shape=flexArrow;endArrow=classic;startArrow=classic;html=1;rounded=0;width=20;" parent="1" source="pQwzymtS64x7x1kbTtJx-1" target="pQwzymtS64x7x1kbTtJx-46" edge="1">
          <mxGeometry width="100" height="100" relative="1" as="geometry">
            <mxPoint x="1710" y="865" as="sourcePoint" />
            <mxPoint x="1860" y="1205" as="targetPoint" />
          </mxGeometry>
        </mxCell>
        <mxCell id="pQwzymtS64x7x1kbTtJx-46" value="User 2 client" style="shape=process;whiteSpace=wrap;html=1;backgroundOutline=1;" parent="1" vertex="1">
          <mxGeometry x="1950" y="643.5" width="186" height="93" as="geometry" />
        </mxCell>
        <mxCell id="pQwzymtS64x7x1kbTtJx-48" value="&lt;font style=&quot;font-size: 25px;&quot;&gt;5s&lt;/font&gt;" style="edgeLabel;html=1;align=center;verticalAlign=middle;resizable=0;points=[];" parent="1" vertex="1" connectable="0">
          <mxGeometry x="1840" y="709.9971428571432" as="geometry">
            <mxPoint x="5" y="19" as="offset" />
          </mxGeometry>
        </mxCell>
        <mxCell id="pQwzymtS64x7x1kbTtJx-49" value="&lt;h1 style=&quot;margin-top: 0px;&quot;&gt;&lt;i&gt;Match over&lt;/i&gt;&lt;/h1&gt;&lt;p style=&quot;&quot;&gt;&lt;i&gt;This happens after the match has concluded and the winner has been decided.&lt;/i&gt;&lt;/p&gt;" style="text;html=1;whiteSpace=wrap;overflow=hidden;rounded=0;align=left;" parent="1" vertex="1">
          <mxGeometry x="380" y="1770" width="170" height="105" as="geometry" />
        </mxCell>
        <mxCell id="pQwzymtS64x7x1kbTtJx-61" value="" style="endArrow=none;dashed=1;html=1;rounded=0;exitX=1;exitY=0.5;exitDx=0;exitDy=0;strokeWidth=2;" parent="1" source="EI8C_f2i3DZrhKItlqoA-50" target="pQwzymtS64x7x1kbTtJx-1" edge="1">
          <mxGeometry width="50" height="50" relative="1" as="geometry">
            <mxPoint x="820" y="1390" as="sourcePoint" />
            <mxPoint x="870" y="1340" as="targetPoint" />
            <Array as="points">
              <mxPoint x="1380" y="770" />
            </Array>
          </mxGeometry>
        </mxCell>
        <mxCell id="pQwzymtS64x7x1kbTtJx-70" style="edgeStyle=orthogonalEdgeStyle;rounded=0;orthogonalLoop=1;jettySize=auto;html=1;" parent="1" source="pQwzymtS64x7x1kbTtJx-64" target="pQwzymtS64x7x1kbTtJx-66" edge="1">
          <mxGeometry relative="1" as="geometry" />
        </mxCell>
        <mxCell id="pQwzymtS64x7x1kbTtJx-64" value="This specific data will be collected and used for the player profile displays and the playable deck." style="rounded=1;whiteSpace=wrap;html=1;fontStyle=0;startSize=30;" parent="1" vertex="1">
          <mxGeometry x="1598.75" y="960" width="151.25" height="80" as="geometry" />
        </mxCell>
        <mxCell id="pQwzymtS64x7x1kbTtJx-69" value="" style="group;labelBorderColor=none;glass=0;" parent="1" vertex="1" connectable="0">
          <mxGeometry x="1800" y="970" width="150" height="150" as="geometry" />
        </mxCell>
        <mxCell id="pQwzymtS64x7x1kbTtJx-66" value="" style="rhombus;whiteSpace=wrap;horizontal=1;html=1;spacing=1;" parent="pQwzymtS64x7x1kbTtJx-69" vertex="1">
          <mxGeometry width="150" height="150" as="geometry" />
        </mxCell>
        <mxCell id="pQwzymtS64x7x1kbTtJx-67" value="&lt;span style=&quot;font-size: 11px;&quot;&gt;Do all cards the user attempted to play this turn match the available cards from the deck?&lt;/span&gt;" style="text;html=1;align=center;verticalAlign=middle;whiteSpace=wrap;rounded=0;" parent="pQwzymtS64x7x1kbTtJx-69" vertex="1">
          <mxGeometry x="25" y="40" width="100" height="70" as="geometry" />
        </mxCell>
        <mxCell id="pQwzymtS64x7x1kbTtJx-74" value="Kick issued player, compensate opponent with reward and redirect back to menu." style="rounded=1;whiteSpace=wrap;html=1;spacing=1;" parent="1" vertex="1">
          <mxGeometry x="2016" y="950" width="134" height="70" as="geometry" />
        </mxCell>
        <mxCell id="pQwzymtS64x7x1kbTtJx-75" value="No" style="edgeStyle=orthogonalEdgeStyle;rounded=0;orthogonalLoop=1;jettySize=auto;html=1;" parent="1" source="pQwzymtS64x7x1kbTtJx-66" target="pQwzymtS64x7x1kbTtJx-74" edge="1">
          <mxGeometry relative="1" as="geometry" />
        </mxCell>
        <mxCell id="pQwzymtS64x7x1kbTtJx-79" value="No action required" style="rounded=1;whiteSpace=wrap;html=1;spacing=1;" parent="1" vertex="1">
          <mxGeometry x="2016" y="1070" width="134" height="70" as="geometry" />
        </mxCell>
        <mxCell id="pQwzymtS64x7x1kbTtJx-80" value="Yes" style="edgeStyle=orthogonalEdgeStyle;rounded=0;orthogonalLoop=1;jettySize=auto;html=1;" parent="1" source="pQwzymtS64x7x1kbTtJx-66" target="pQwzymtS64x7x1kbTtJx-79" edge="1">
          <mxGeometry relative="1" as="geometry" />
        </mxCell>
        <mxCell id="pQwzymtS64x7x1kbTtJx-82" value="&lt;h1 style=&quot;margin-top: 0px; line-height: 110%;&quot;&gt;&lt;i&gt;Invite based matchmaking&lt;/i&gt;&lt;/h1&gt;&lt;p style=&quot;margin-top: 10px; line-height: 110%;&quot;&gt;&lt;i&gt;Matchmaking using this algorithm will be much more efficient due to the amount of available lobbies isn&#39;t limited, and the invited player can search for the specific user id of the player who invited them. This makes it so a user can&#39;t join a lobby they weren&#39;t invited to.&lt;/i&gt;&lt;/p&gt;" style="text;html=1;whiteSpace=wrap;overflow=hidden;rounded=0;" parent="1" vertex="1">
          <mxGeometry x="-20" y="410" width="220" height="170" as="geometry" />
        </mxCell>
        <mxCell id="pQwzymtS64x7x1kbTtJx-83" value="&lt;h1 style=&quot;margin-top: 0px; line-height: 100%;&quot;&gt;&lt;i&gt;Algorithmic matchmaking&lt;/i&gt;&lt;/h1&gt;&lt;p style=&quot;margin-top: 10px; line-height: 100%;&quot;&gt;&lt;i&gt;Firstly, the algorithm uses the user-selected mode (+ rank if user chose ranked mode) to filter the non-full lobbies to find the currently available row. If a row is not found it creates one, with the user id 2 collumn open. This way, the probability of there being more lobbies than gamemodes (+ranks) is slim, which makes the process efficient, yet not truly random.&lt;/i&gt;&lt;/p&gt;" style="text;html=1;whiteSpace=wrap;overflow=hidden;rounded=0;" parent="1" vertex="1">
          <mxGeometry x="670" y="410" width="230" height="190" as="geometry" />
        </mxCell>
        <mxCell id="pQwzymtS64x7x1kbTtJx-84" value="" style="endArrow=classic;html=1;rounded=0;entryX=0;entryY=0.5;entryDx=0;entryDy=0;exitX=1;exitY=0.5;exitDx=0;exitDy=0;" parent="1" source="EI8C_f2i3DZrhKItlqoA-51" target="pQwzymtS64x7x1kbTtJx-85" edge="1">
          <mxGeometry width="50" height="50" relative="1" as="geometry">
            <mxPoint x="1040" y="1500" as="sourcePoint" />
            <mxPoint x="1790" y="1200" as="targetPoint" />
          </mxGeometry>
        </mxCell>
        <mxCell id="pQwzymtS64x7x1kbTtJx-99" value="" style="edgeStyle=orthogonalEdgeStyle;rounded=0;orthogonalLoop=1;jettySize=auto;html=1;" parent="1" source="pQwzymtS64x7x1kbTtJx-85" target="pQwzymtS64x7x1kbTtJx-98" edge="1">
          <mxGeometry relative="1" as="geometry" />
        </mxCell>
        <mxCell id="CsufiQmwH3geNDcdlSES-4" value="" style="edgeStyle=orthogonalEdgeStyle;rounded=0;orthogonalLoop=1;jettySize=auto;html=1;" edge="1" parent="1" source="pQwzymtS64x7x1kbTtJx-85" target="CsufiQmwH3geNDcdlSES-3">
          <mxGeometry relative="1" as="geometry">
            <mxPoint x="2190" y="1350" as="targetPoint" />
            <Array as="points">
              <mxPoint x="2110" y="1210" />
              <mxPoint x="2110" y="1325" />
            </Array>
          </mxGeometry>
        </mxCell>
        <mxCell id="pQwzymtS64x7x1kbTtJx-85" value="Every row in the match table represents a &quot;turn&quot;. In the row every collumn will have stored information about the current state of the match." style="rounded=1;whiteSpace=wrap;html=1;spacing=1;" parent="1" vertex="1">
          <mxGeometry x="1786.25" y="1170" width="177.5" height="80" as="geometry" />
        </mxCell>
        <mxCell id="pQwzymtS64x7x1kbTtJx-86" value="" style="edgeStyle=orthogonalEdgeStyle;rounded=0;orthogonalLoop=1;jettySize=auto;html=1;" parent="1" source="pQwzymtS64x7x1kbTtJx-66" target="pQwzymtS64x7x1kbTtJx-85" edge="1">
          <mxGeometry relative="1" as="geometry" />
        </mxCell>
        <mxCell id="pQwzymtS64x7x1kbTtJx-101" value="" style="edgeStyle=orthogonalEdgeStyle;rounded=0;orthogonalLoop=1;jettySize=auto;html=1;" parent="1" source="pQwzymtS64x7x1kbTtJx-98" target="pQwzymtS64x7x1kbTtJx-100" edge="1">
          <mxGeometry relative="1" as="geometry" />
        </mxCell>
        <mxCell id="pQwzymtS64x7x1kbTtJx-98" value="&lt;div&gt;Latest row-data is fetched by the users, and is used to display the information to the users on the page&lt;br&gt;&lt;/div&gt;" style="whiteSpace=wrap;html=1;rounded=1;spacing=1;align=center;" parent="1" vertex="1">
          <mxGeometry x="1791.25" y="1290" width="167.5" height="70" as="geometry" />
        </mxCell>
        <mxCell id="pQwzymtS64x7x1kbTtJx-106" style="edgeStyle=orthogonalEdgeStyle;rounded=0;orthogonalLoop=1;jettySize=auto;html=1;" parent="1" source="pQwzymtS64x7x1kbTtJx-100" target="pQwzymtS64x7x1kbTtJx-102" edge="1">
          <mxGeometry relative="1" as="geometry" />
        </mxCell>
        <mxCell id="pQwzymtS64x7x1kbTtJx-100" value="At the end of every round, multiple game-over checks occur" style="whiteSpace=wrap;html=1;rounded=1;spacing=1;" parent="1" vertex="1">
          <mxGeometry x="1480" y="1350" width="130" height="60" as="geometry" />
        </mxCell>
        <mxCell id="pQwzymtS64x7x1kbTtJx-105" value="" style="group" parent="1" vertex="1" connectable="0">
          <mxGeometry x="1485" y="1450" width="120" height="120" as="geometry" />
        </mxCell>
        <mxCell id="pQwzymtS64x7x1kbTtJx-102" value="" style="rhombus;whiteSpace=wrap;html=1;" parent="pQwzymtS64x7x1kbTtJx-105" vertex="1">
          <mxGeometry width="120" height="120" as="geometry" />
        </mxCell>
        <mxCell id="pQwzymtS64x7x1kbTtJx-104" value="Is health1 and/or 2 equal or lower to zero?" style="text;html=1;align=center;verticalAlign=middle;whiteSpace=wrap;rounded=0;" parent="pQwzymtS64x7x1kbTtJx-105" vertex="1">
          <mxGeometry x="20" y="15" width="80" height="95" as="geometry" />
        </mxCell>
        <mxCell id="pQwzymtS64x7x1kbTtJx-109" value="End match..." style="rounded=1;whiteSpace=wrap;html=1;" parent="1" vertex="1">
          <mxGeometry x="1320" y="1420" width="120" height="60" as="geometry" />
        </mxCell>
        <mxCell id="pQwzymtS64x7x1kbTtJx-108" style="edgeStyle=orthogonalEdgeStyle;rounded=0;orthogonalLoop=1;jettySize=auto;html=1;" parent="1" source="pQwzymtS64x7x1kbTtJx-102" target="pQwzymtS64x7x1kbTtJx-109" edge="1">
          <mxGeometry relative="1" as="geometry">
            <mxPoint x="1440" y="1450" as="targetPoint" />
          </mxGeometry>
        </mxCell>
        <mxCell id="pQwzymtS64x7x1kbTtJx-111" value="Yes" style="edgeLabel;html=1;align=center;verticalAlign=middle;resizable=0;points=[];" parent="pQwzymtS64x7x1kbTtJx-108" vertex="1" connectable="0">
          <mxGeometry x="-0.0545" relative="1" as="geometry">
            <mxPoint as="offset" />
          </mxGeometry>
        </mxCell>
        <mxCell id="pQwzymtS64x7x1kbTtJx-110" value="" style="endArrow=classic;html=1;rounded=0;" parent="1" target="EI8C_f2i3DZrhKItlqoA-70" edge="1">
          <mxGeometry width="50" height="50" relative="1" as="geometry">
            <mxPoint x="1320" y="1450" as="sourcePoint" />
            <mxPoint x="1370" y="1400" as="targetPoint" />
            <Array as="points">
              <mxPoint x="820" y="1970" />
              <mxPoint x="580" y="1970" />
            </Array>
          </mxGeometry>
        </mxCell>
        <mxCell id="pQwzymtS64x7x1kbTtJx-113" value="No action required" style="rounded=1;whiteSpace=wrap;html=1;" parent="1" vertex="1">
          <mxGeometry x="1645" y="1420" width="120" height="60" as="geometry" />
        </mxCell>
        <mxCell id="pQwzymtS64x7x1kbTtJx-112" style="edgeStyle=orthogonalEdgeStyle;rounded=0;orthogonalLoop=1;jettySize=auto;html=1;" parent="1" source="pQwzymtS64x7x1kbTtJx-102" target="pQwzymtS64x7x1kbTtJx-113" edge="1">
          <mxGeometry relative="1" as="geometry">
            <mxPoint x="1440" y="1570" as="targetPoint" />
          </mxGeometry>
        </mxCell>
        <mxCell id="pQwzymtS64x7x1kbTtJx-117" value="No" style="edgeLabel;html=1;align=center;verticalAlign=middle;resizable=0;points=[];" parent="pQwzymtS64x7x1kbTtJx-112" vertex="1" connectable="0">
          <mxGeometry x="-0.02" y="-1" relative="1" as="geometry">
            <mxPoint y="3" as="offset" />
          </mxGeometry>
        </mxCell>
        <mxCell id="pQwzymtS64x7x1kbTtJx-146" style="edgeStyle=orthogonalEdgeStyle;rounded=0;orthogonalLoop=1;jettySize=auto;html=1;" parent="1" source="pQwzymtS64x7x1kbTtJx-121" target="pQwzymtS64x7x1kbTtJx-109" edge="1">
          <mxGeometry relative="1" as="geometry" />
        </mxCell>
        <mxCell id="pQwzymtS64x7x1kbTtJx-148" value="&lt;font&gt;Yes&lt;/font&gt;" style="edgeLabel;html=1;align=center;verticalAlign=middle;resizable=0;points=[];spacing=4;" parent="pQwzymtS64x7x1kbTtJx-146" vertex="1" connectable="0">
          <mxGeometry x="-0.6384" y="-1" relative="1" as="geometry">
            <mxPoint as="offset" />
          </mxGeometry>
        </mxCell>
        <mxCell id="pQwzymtS64x7x1kbTtJx-147" style="edgeStyle=orthogonalEdgeStyle;rounded=0;orthogonalLoop=1;jettySize=auto;html=1;exitX=1;exitY=0.5;exitDx=0;exitDy=0;" parent="1" source="pQwzymtS64x7x1kbTtJx-121" target="pQwzymtS64x7x1kbTtJx-113" edge="1">
          <mxGeometry relative="1" as="geometry" />
        </mxCell>
        <mxCell id="pQwzymtS64x7x1kbTtJx-149" value="No" style="edgeLabel;html=1;align=center;verticalAlign=middle;resizable=0;points=[];" parent="pQwzymtS64x7x1kbTtJx-147" vertex="1" connectable="0">
          <mxGeometry x="-0.6954" y="1" relative="1" as="geometry">
            <mxPoint x="4" y="1" as="offset" />
          </mxGeometry>
        </mxCell>
        <mxCell id="pQwzymtS64x7x1kbTtJx-151" value="" style="edgeStyle=orthogonalEdgeStyle;rounded=0;orthogonalLoop=1;jettySize=auto;html=1;" parent="1" source="pQwzymtS64x7x1kbTtJx-121" target="pQwzymtS64x7x1kbTtJx-150" edge="1">
          <mxGeometry relative="1" as="geometry" />
        </mxCell>
        <mxCell id="pQwzymtS64x7x1kbTtJx-121" value="Does player_left equal true?" style="rhombus;whiteSpace=wrap;html=1;" parent="1" vertex="1">
          <mxGeometry x="1485" y="1590" width="120" height="120" as="geometry" />
        </mxCell>
        <mxCell id="pQwzymtS64x7x1kbTtJx-123" value="" style="endArrow=classic;html=1;rounded=0;exitX=0.5;exitY=1;exitDx=0;exitDy=0;" parent="1" source="pQwzymtS64x7x1kbTtJx-102" target="pQwzymtS64x7x1kbTtJx-121" edge="1">
          <mxGeometry width="50" height="50" relative="1" as="geometry">
            <mxPoint x="1550" y="1560" as="sourcePoint" />
            <mxPoint x="1600" y="1510" as="targetPoint" />
          </mxGeometry>
        </mxCell>
        <mxCell id="pQwzymtS64x7x1kbTtJx-153" style="edgeStyle=orthogonalEdgeStyle;rounded=0;orthogonalLoop=1;jettySize=auto;html=1;" parent="1" source="pQwzymtS64x7x1kbTtJx-150" target="pQwzymtS64x7x1kbTtJx-109" edge="1">
          <mxGeometry relative="1" as="geometry" />
        </mxCell>
        <mxCell id="pQwzymtS64x7x1kbTtJx-156" style="edgeStyle=orthogonalEdgeStyle;rounded=0;orthogonalLoop=1;jettySize=auto;html=1;exitX=1;exitY=0.5;exitDx=0;exitDy=0;" parent="1" source="pQwzymtS64x7x1kbTtJx-150" target="pQwzymtS64x7x1kbTtJx-113" edge="1">
          <mxGeometry relative="1" as="geometry" />
        </mxCell>
        <mxCell id="pQwzymtS64x7x1kbTtJx-150" value="" style="rhombus;whiteSpace=wrap;html=1;" parent="1" vertex="1">
          <mxGeometry x="1485" y="1730" width="120" height="120" as="geometry" />
        </mxCell>
        <mxCell id="pQwzymtS64x7x1kbTtJx-152" value="&lt;font style=&quot;font-size: 11px;&quot;&gt;Is the round value higher than the max_rounds?&lt;/font&gt;" style="text;html=1;align=center;verticalAlign=middle;whiteSpace=wrap;rounded=0;" parent="1" vertex="1">
          <mxGeometry x="1510" y="1749.3700000000001" width="70" height="81.25" as="geometry" />
        </mxCell>
        <mxCell id="pQwzymtS64x7x1kbTtJx-154" value="Yes" style="edgeLabel;html=1;align=center;verticalAlign=middle;resizable=0;points=[];" parent="1" vertex="1" connectable="0">
          <mxGeometry x="1435" y="1789.99" as="geometry" />
        </mxCell>
        <mxCell id="pQwzymtS64x7x1kbTtJx-157" value="No" style="edgeLabel;html=1;align=center;verticalAlign=middle;resizable=0;points=[];" parent="1" vertex="1" connectable="0">
          <mxGeometry x="1650.0033333333336" y="1789.99" as="geometry" />
        </mxCell>
        <mxCell id="pQwzymtS64x7x1kbTtJx-164" value="" style="edgeStyle=orthogonalEdgeStyle;rounded=0;orthogonalLoop=1;jettySize=auto;html=1;" parent="1" source="pQwzymtS64x7x1kbTtJx-159" target="wGgicrv_s1oQboJG13sr-1" edge="1">
          <mxGeometry relative="1" as="geometry">
            <mxPoint x="1875" y="1580" as="targetPoint" />
          </mxGeometry>
        </mxCell>
        <mxCell id="pQwzymtS64x7x1kbTtJx-159" value="The round-time check will happen in a set interval of time. If the round timer reaches zero, the match will conclude." style="whiteSpace=wrap;html=1;rounded=1;spacing=1;" parent="1" vertex="1">
          <mxGeometry x="1795" y="1410" width="160" height="80" as="geometry" />
        </mxCell>
        <mxCell id="pQwzymtS64x7x1kbTtJx-160" value="" style="endArrow=classic;html=1;rounded=0;" parent="1" source="pQwzymtS64x7x1kbTtJx-98" target="pQwzymtS64x7x1kbTtJx-159" edge="1">
          <mxGeometry width="50" height="50" relative="1" as="geometry">
            <mxPoint x="1870" y="1360" as="sourcePoint" />
            <mxPoint x="1920" y="1310" as="targetPoint" />
          </mxGeometry>
        </mxCell>
        <mxCell id="pQwzymtS64x7x1kbTtJx-161" value="Use session user_id as user_id_1, no longer looking for new row&#39;s to fill." style="rounded=1;whiteSpace=wrap;html=1;" parent="1" vertex="1">
          <mxGeometry x="605" y="1100" width="130" height="70" as="geometry" />
        </mxCell>
        <mxCell id="pQwzymtS64x7x1kbTtJx-162" value="" style="endArrow=classic;html=1;rounded=0;exitX=0.5;exitY=1;exitDx=0;exitDy=0;" parent="1" source="EI8C_f2i3DZrhKItlqoA-43" target="pQwzymtS64x7x1kbTtJx-161" edge="1">
          <mxGeometry width="50" height="50" relative="1" as="geometry">
            <mxPoint x="710" y="950" as="sourcePoint" />
            <mxPoint x="760" y="900" as="targetPoint" />
          </mxGeometry>
        </mxCell>
        <mxCell id="pQwzymtS64x7x1kbTtJx-168" value="" style="edgeStyle=orthogonalEdgeStyle;rounded=0;orthogonalLoop=1;jettySize=auto;html=1;" parent="1" source="pQwzymtS64x7x1kbTtJx-165" target="pQwzymtS64x7x1kbTtJx-167" edge="1">
          <mxGeometry relative="1" as="geometry" />
        </mxCell>
        <mxCell id="pQwzymtS64x7x1kbTtJx-174" value="Yes" style="edgeLabel;html=1;align=center;verticalAlign=middle;resizable=0;points=[];" parent="pQwzymtS64x7x1kbTtJx-168" vertex="1" connectable="0">
          <mxGeometry x="-0.4076" relative="1" as="geometry">
            <mxPoint y="9" as="offset" />
          </mxGeometry>
        </mxCell>
        <mxCell id="pQwzymtS64x7x1kbTtJx-175" style="edgeStyle=orthogonalEdgeStyle;rounded=0;orthogonalLoop=1;jettySize=auto;html=1;" parent="1" source="pQwzymtS64x7x1kbTtJx-165" target="pQwzymtS64x7x1kbTtJx-177" edge="1">
          <mxGeometry relative="1" as="geometry">
            <mxPoint x="2000" y="1737.5" as="targetPoint" />
          </mxGeometry>
        </mxCell>
        <mxCell id="pQwzymtS64x7x1kbTtJx-176" value="No" style="edgeLabel;html=1;align=center;verticalAlign=middle;resizable=0;points=[];" parent="pQwzymtS64x7x1kbTtJx-175" vertex="1" connectable="0">
          <mxGeometry x="-0.1828" y="-2" relative="1" as="geometry">
            <mxPoint as="offset" />
          </mxGeometry>
        </mxCell>
        <mxCell id="pQwzymtS64x7x1kbTtJx-165" value="Is turn set to true?" style="rhombus;whiteSpace=wrap;html=1;" parent="1" vertex="1">
          <mxGeometry x="1817.5" y="1680" width="115" height="115" as="geometry" />
        </mxCell>
        <mxCell id="pQwzymtS64x7x1kbTtJx-167" value="User performs action" style="rounded=1;whiteSpace=wrap;html=1;" parent="1" vertex="1">
          <mxGeometry x="1810" y="1859.6699999999998" width="130" height="60.63" as="geometry" />
        </mxCell>
        <mxCell id="pQwzymtS64x7x1kbTtJx-172" value="" style="curved=1;endArrow=classic;html=1;rounded=0;entryX=0.049;entryY=0.591;entryDx=0;entryDy=0;exitX=0;exitY=0.25;exitDx=0;exitDy=0;entryPerimeter=0;" parent="1" source="pQwzymtS64x7x1kbTtJx-167" target="pQwzymtS64x7x1kbTtJx-165" edge="1">
          <mxGeometry width="50" height="50" relative="1" as="geometry">
            <mxPoint x="1810" y="1880" as="sourcePoint" />
            <mxPoint x="1860" y="1830" as="targetPoint" />
            <Array as="points">
              <mxPoint x="1780" y="1840" />
              <mxPoint x="1780" y="1770" />
            </Array>
          </mxGeometry>
        </mxCell>
        <mxCell id="pQwzymtS64x7x1kbTtJx-173" value="Loop" style="edgeLabel;html=1;align=center;verticalAlign=middle;resizable=0;points=[];" parent="pQwzymtS64x7x1kbTtJx-172" vertex="1" connectable="0">
          <mxGeometry x="-0.0857" y="2" relative="1" as="geometry">
            <mxPoint as="offset" />
          </mxGeometry>
        </mxCell>
        <mxCell id="pQwzymtS64x7x1kbTtJx-184" style="edgeStyle=orthogonalEdgeStyle;rounded=0;orthogonalLoop=1;jettySize=auto;html=1;" parent="1" source="pQwzymtS64x7x1kbTtJx-177" target="pQwzymtS64x7x1kbTtJx-183" edge="1">
          <mxGeometry relative="1" as="geometry" />
        </mxCell>
        <mxCell id="pQwzymtS64x7x1kbTtJx-177" value="turn set to false" style="rounded=1;whiteSpace=wrap;html=1;" parent="1" vertex="1">
          <mxGeometry x="2000" y="1707.5" width="120" height="60" as="geometry" />
        </mxCell>
        <mxCell id="pQwzymtS64x7x1kbTtJx-183" value="If the current user has turn set to false, set the other users turn to true" style="rounded=1;whiteSpace=wrap;html=1;" parent="1" vertex="1">
          <mxGeometry x="1995" y="1820" width="130" height="60" as="geometry" />
        </mxCell>
        <mxCell id="wGgicrv_s1oQboJG13sr-1" value="" style="rhombus;whiteSpace=wrap;html=1;" parent="1" vertex="1">
          <mxGeometry x="1817.5" y="1530" width="115" height="110" as="geometry" />
        </mxCell>
        <mxCell id="wGgicrv_s1oQboJG13sr-4" value="For any user who&#39;s &quot;turn&quot; is currently set to true" style="text;html=1;align=center;verticalAlign=middle;whiteSpace=wrap;rounded=0;" parent="1" vertex="1">
          <mxGeometry x="1832.5" y="1570" width="85" height="40" as="geometry" />
        </mxCell>
        <mxCell id="wGgicrv_s1oQboJG13sr-6" value="" style="shape=link;html=1;rounded=0;" parent="1" source="wGgicrv_s1oQboJG13sr-1" target="pQwzymtS64x7x1kbTtJx-165" edge="1">
          <mxGeometry width="100" relative="1" as="geometry">
            <mxPoint x="1870" y="1640" as="sourcePoint" />
            <mxPoint x="1970" y="1640" as="targetPoint" />
          </mxGeometry>
        </mxCell>
        <mxCell id="w6-UylWCK7Cdz2--Akp1-2" value="" style="rounded=1;whiteSpace=wrap;html=1;" parent="1" vertex="1">
          <mxGeometry x="260" y="1890" width="120" height="60" as="geometry" />
        </mxCell>
        <mxCell id="CsufiQmwH3geNDcdlSES-1" value="&lt;h1 style=&quot;margin-top: 0px;&quot;&gt;&lt;i&gt;Turn logic&lt;/i&gt;&lt;/h1&gt;&lt;p&gt;&lt;i&gt;Move logic and how single cards/ combo&#39;s should be interpreted by the server and clients in a user friendly and easy to understand order&lt;/i&gt;&lt;/p&gt;" style="text;html=1;whiteSpace=wrap;overflow=hidden;rounded=0;" vertex="1" parent="1">
          <mxGeometry x="2230" y="1160" width="200" height="120" as="geometry" />
        </mxCell>
        <mxCell id="CsufiQmwH3geNDcdlSES-3" value="(wip)" style="whiteSpace=wrap;html=1;rounded=1;spacing=1;" vertex="1" parent="1">
          <mxGeometry x="2220" y="1290" width="190" height="95" as="geometry" />
        </mxCell>
      </root>
    </mxGraphModel>
  </diagram>
</mxfile>
